<svg width="59" height="65" viewBox="0 0 59 65" fill="none" xmlns="http://www.w3.org/2000/svg">
<path d="M42.3257 25.0023L16.7754 10.2683" stroke="#4CAF50" stroke-width="7.57046" stroke-linecap="round" stroke-linejoin="round"/>
<path d="M55.1006 43.7391V21.0277C55.0996 20.032 54.8367 19.0541 54.3384 18.1921C53.8402 17.3301 53.124 16.6142 52.2617 16.1164L32.3892 4.76069C31.5261 4.26235 30.547 4 29.5503 4C28.5536 4 27.5745 4.26235 26.7114 4.76069L6.83892 16.1164C5.97663 16.6142 5.26042 17.3301 4.76214 18.1921C4.26386 19.0541 4.00102 20.032 4 21.0277V43.7391C4.00102 44.7348 4.26386 45.7127 4.76214 46.5747C5.26042 47.4367 5.97663 48.1526 6.83892 48.6504L26.7114 60.0061C27.5745 60.5044 28.5536 60.7668 29.5503 60.7668C30.547 60.7668 31.5261 60.5044 32.3892 60.0061L52.2617 48.6504C53.124 48.1526 53.8402 47.4367 54.3384 46.5747C54.8367 45.7127 55.0996 44.7348 55.1006 43.7391Z" stroke="#4CAF50" stroke-width="7.57046" stroke-linecap="round" stroke-linejoin="round"/>
<path d="M4.76709 18.0754L29.5509 32.412L54.3347 18.0754" stroke="#4CAF50" stroke-width="7.57046" stroke-linecap="round" stroke-linejoin="round"/>
<path d="M29.5503 61.0001V32.3838" stroke="#4CAF50" stroke-width="7.57046" stroke-linecap="round" stroke-linejoin="round"/>
</svg>
