<svg width="52" height="66" viewBox="0 0 52 66" fill="none" xmlns="http://www.w3.org/2000/svg">
<path d="M25.9286 0C39.5411 0 51.8571 10.626 51.8571 27.06C51.8571 38.016 43.2035 50.985 25.9286 66C8.65366 50.985 0 38.016 0 27.06C0 10.626 12.3161 0 25.9286 0ZM45.375 27.06C45.375 15.081 36.7862 6.6 25.9286 6.6C15.071 6.6 6.48214 15.081 6.48214 27.06C6.48214 34.782 12.8022 45.012 25.9286 57.222C39.0549 45.012 45.375 34.782 45.375 27.06ZM25.9286 33C22.3634 33 19.4464 30.03 19.4464 26.4C19.4464 22.77 22.3634 19.8 25.9286 19.8C29.4938 19.8 32.4107 22.77 32.4107 26.4C32.4107 30.03 29.4938 33 25.9286 33Z" fill="#4CAF50"/>
</svg>
